<?xml version="1.0" encoding="UTF-8" standalone="no"?>
<!-- Created with Inkscape (http://www.inkscape.org/) -->

<svg
   xmlns:dc="http://purl.org/dc/elements/1.1/"
   xmlns:cc="http://creativecommons.org/ns#"
   xmlns:rdf="http://www.w3.org/1999/02/22-rdf-syntax-ns#"
   xmlns:svg="http://www.w3.org/2000/svg"
   xmlns="http://www.w3.org/2000/svg"
   xmlns:sodipodi="http://sodipodi.sourceforge.net/DTD/sodipodi-0.dtd"
   xmlns:inkscape="http://www.inkscape.org/namespaces/inkscape"
   width="512"
   height="512"
   viewBox="0 0 135.46666 135.46667"
   version="1.1"
   id="svg8"
   inkscape:version="0.92.0 r15299"
   sodipodi:docname="logo.svg">
  <defs
     id="defs2" />
  <sodipodi:namedview
     id="base"
     pagecolor="#ffffff"
     bordercolor="#666666"
     borderopacity="1.0"
     inkscape:pageopacity="0.0"
     inkscape:pageshadow="2"
     inkscape:zoom="1.4"
     inkscape:cx="180.47678"
     inkscape:cy="317.13573"
     inkscape:document-units="mm"
     inkscape:current-layer="layer1"
     showgrid="false"
     inkscape:window-width="2560"
     inkscape:window-height="1377"
     inkscape:window-x="-8"
     inkscape:window-y="-8"
     inkscape:window-maximized="1"
     units="px" />
  <metadata
     id="metadata5">
    <rdf:RDF>
      <cc:Work
         rdf:about="">
        <dc:format>image/svg+xml</dc:format>
        <dc:type
           rdf:resource="http://purl.org/dc/dcmitype/StillImage" />
        <dc:title></dc:title>
      </cc:Work>
    </rdf:RDF>
  </metadata>
  <g
     inkscape:label="Ebene 1"
     inkscape:groupmode="layer"
     id="layer1"
     transform="translate(0,-161.53332)">
    <g
       id="g4594">
      <g
         style="fill:#b3b3b3;fill-opacity:0.98591548"
         transform="matrix(3.9921109,0,0,3.9921109,-224.63233,122.35538)"
         id="g4544">
        <g
           id="text4538"
           style="font-style:normal;font-weight:normal;font-size:41.96111679px;line-height:26.22569656px;font-family:sans-serif;letter-spacing:0px;word-spacing:0px;fill:#b3b3b3;fill-opacity:0.98591548;stroke:none;stroke-width:1.04902792"
           aria-label="m">
          <path
             id="path4578"
             style="font-style:normal;font-variant:normal;font-weight:300;font-stretch:normal;font-family:Oswald;-inkscape-font-specification:'Oswald Light';fill:#b3b3b3;fill-opacity:0.98591548;stroke-width:1.04902792"
             d="m 58.5866,39.125156 v -24.25877 h 2.888924 v 2.458659 q 2.438171,-2.888925 5.716383,-2.888925 3.032346,0 3.810922,3.196257 2.540614,-3.196257 5.982737,-3.196257 1.803017,0 2.950391,1.311285 1.167863,1.290796 1.167863,4.241187 V 39.125156 H 78.194407 V 20.070548 q 0,-1.987416 -0.614665,-2.765992 -0.614665,-0.778575 -1.762039,-0.778575 -2.315237,0.04098 -4.569008,2.520125 0.04098,0.614665 0.04098,0.942486 V 39.125156 H 68.421237 V 20.070548 q 0,-1.987416 -0.635154,-2.765992 -0.635154,-0.778575 -1.782528,-0.778575 -2.315237,0.04098 -4.528031,2.520125 v 20.07905 z" />
        </g>
        <g
           id="text4542"
           style="font-style:normal;font-weight:normal;font-size:22.94857407px;line-height:14.34285831px;font-family:sans-serif;letter-spacing:0px;word-spacing:0px;fill:#b3b3b3;fill-opacity:0.98591548;stroke:none;stroke-width:0.57371432"
           aria-label="k">
          <path
             id="path4581"
             style="font-style:normal;font-variant:normal;font-weight:200;font-stretch:normal;font-family:Oswald;-inkscape-font-specification:'Oswald Ultra-Light';fill:#b3b3b3;fill-opacity:0.98591548;stroke-width:0.57371432"
             d="M 79.89318,39.113951 V 20.535467 h 1.221384 v 12.247457 l 4.919153,-6.924912 h 1.322232 l -3.484867,5.076027 3.283171,8.191117 h -1.221385 l -2.980625,-7.462768 -1.837679,2.487589 v 4.963974 z" />
        </g>
      </g>
      <g
         transform="matrix(3.9921109,0,0,3.9921109,-222.51984,122.35538)"
         style="fill:#ffffff;fill-opacity:1"
         id="g4503">
        <g
           id="text4487"
           style="font-style:normal;font-weight:normal;font-size:41.96111679px;line-height:26.22569656px;font-family:sans-serif;letter-spacing:0px;word-spacing:0px;fill:#ffffff;fill-opacity:1;stroke:none;stroke-width:1.04902792"
           aria-label="m">
          <path
             id="path4572"
             style="font-style:normal;font-variant:normal;font-weight:300;font-stretch:normal;font-family:Oswald;-inkscape-font-specification:'Oswald Light';fill:#ffffff;fill-opacity:1;stroke-width:1.04902792"
             d="m 58.5866,39.125156 v -24.25877 h 2.888924 v 2.458659 q 2.438171,-2.888925 5.716383,-2.888925 3.032346,0 3.810922,3.196257 2.540614,-3.196257 5.982737,-3.196257 1.803017,0 2.950391,1.311285 1.167863,1.290796 1.167863,4.241187 V 39.125156 H 78.194407 V 20.070548 q 0,-1.987416 -0.614665,-2.765992 -0.614665,-0.778575 -1.762039,-0.778575 -2.315237,0.04098 -4.569008,2.520125 0.04098,0.614665 0.04098,0.942486 V 39.125156 H 68.421237 V 20.070548 q 0,-1.987416 -0.635154,-2.765992 -0.635154,-0.778575 -1.782528,-0.778575 -2.315237,0.04098 -4.528031,2.520125 v 20.07905 z" />
        </g>
        <g
           id="text4495"
           style="font-style:normal;font-weight:normal;font-size:22.94857407px;line-height:14.34285831px;font-family:sans-serif;letter-spacing:0px;word-spacing:0px;fill:#ffffff;fill-opacity:1;stroke:none;stroke-width:0.57371432"
           aria-label="k">
          <path
             id="path4575"
             style="font-style:normal;font-variant:normal;font-weight:200;font-stretch:normal;font-family:Oswald;-inkscape-font-specification:'Oswald Ultra-Light';fill:#ffffff;fill-opacity:1;stroke-width:0.57371432"
             d="M 79.89318,39.113951 V 20.535467 h 1.221384 v 12.247457 l 4.919153,-6.924912 h 1.322232 l -3.484867,5.076027 3.283171,8.191117 h -1.221385 l -2.980625,-7.462768 -1.837679,2.487589 v 4.963974 z" />
        </g>
      </g>
    </g>
    <g
       id="g4513">
      <g
         id="g4526">
        <g
           id="text4507"
           style="font-style:normal;font-weight:normal;font-size:41.96111679px;line-height:26.22569656px;font-family:sans-serif;letter-spacing:0px;word-spacing:0px;fill:#000000;fill-opacity:1;stroke:none;stroke-width:1.04902792"
           aria-label="m" />
        <g
           id="text4511"
           style="font-style:normal;font-weight:normal;font-size:22.94857407px;line-height:14.34285831px;font-family:sans-serif;letter-spacing:0px;word-spacing:0px;fill:#000000;fill-opacity:1;stroke:none;stroke-width:0.57371432"
           aria-label="k" />
      </g>
    </g>
  </g>
</svg>
